<svg width="83" height="32" viewBox="0 0 83 32" fill="none" xmlns="http://www.w3.org/2000/svg">
<g clip-path="url(#clip0_65_5776)">
<path d="M19.7907 14.9303C19.7568 11.3748 22.6954 9.66653 22.8276 9.58518C21.1736 7.16852 18.6044 6.83636 17.6892 6.79908C15.5031 6.57537 13.422 8.08706 12.3102 8.08706C11.1985 8.08706 9.48684 6.82958 7.6735 6.86686C5.28734 6.90076 3.08761 8.25314 1.85725 10.3885C-0.617033 14.6795 1.22681 21.0516 3.64347 24.5393C4.82638 26.2442 6.2296 28.166 8.08023 28.0948C9.86306 28.0237 10.5342 26.9424 12.6831 26.9424C14.832 26.9424 15.4387 28.0948 17.3198 28.0609C19.2348 28.0237 20.4482 26.3188 21.621 24.6071C22.97 22.6243 23.5292 20.7093 23.5631 20.6076C23.5191 20.5907 19.8314 19.1773 19.7907 14.9303Z" fill="#8191B2" fill-opacity="0.65"/>
<path d="M16.2549 4.4876C17.2378 3.29791 17.8987 1.64726 17.7191 0C16.3057 0.0576202 14.5941 0.94226 13.5806 2.13195C12.6722 3.18267 11.8757 4.86382 12.0927 6.47719C13.662 6.59921 15.2753 5.67389 16.2549 4.4876ZM32.1852 18.4249L30.5582 23.3565H28.467L33.7918 7.68382H36.2321L41.5773 23.3565H39.4148L37.7404 18.4249H32.1852ZM37.3235 16.842L35.7915 12.3307C35.4424 11.3071 35.2119 10.3784 34.9781 9.47005H34.934C34.7001 10.3988 34.4459 11.3512 34.1443 12.307L32.6122 16.8387L37.3235 16.842ZM43.1635 15.7744C43.1635 14.3339 43.1194 13.1679 43.0686 12.1002H44.9057L45.0006 14.0322H45.0446C45.8818 12.6595 47.2071 11.846 49.0442 11.846C51.7659 11.846 53.8097 14.1475 53.8097 17.5674C53.8097 21.6144 51.3456 23.6107 48.6951 23.6107C47.2071 23.6107 45.9056 22.96 45.2311 21.8448H45.187V27.9594H43.1635V15.7744ZM45.1836 18.774C45.1836 19.0791 45.2277 19.3536 45.2785 19.6112C45.6513 21.028 46.8817 22.0075 48.3493 22.0075C50.5118 22.0075 51.7693 20.2416 51.7693 17.6589C51.7693 15.4015 50.583 13.4763 48.4205 13.4763C47.0275 13.4763 45.7259 14.4762 45.326 16.0116C45.2548 16.2658 45.187 16.5709 45.187 16.8488L45.1836 18.774ZM55.9247 15.7744C55.9247 14.3339 55.8806 13.1679 55.8298 12.1002H57.6669L57.7618 14.0322H57.8058C58.643 12.6595 59.9683 11.846 61.8053 11.846C64.5271 11.846 66.5709 14.1475 66.5709 17.5674C66.5709 21.6144 64.1068 23.6107 61.4562 23.6107C59.9683 23.6107 58.6667 22.96 57.9922 21.8448H57.9482V27.9594H55.9247V15.7744ZM57.9482 18.774C57.9482 19.0791 57.9922 19.3536 58.0431 19.6112C58.4159 21.028 59.6463 22.0075 61.1139 22.0075C63.2764 22.0075 64.5338 20.2416 64.5338 17.6589C64.5338 15.4015 63.3475 13.4763 61.1851 13.4763C59.792 13.4763 58.4905 14.4762 58.0905 16.0116C58.0194 16.2658 57.9516 16.5709 57.9516 16.8488L57.9482 18.774ZM68.6893 6.84664H70.7365V23.3531H68.6893V6.84664ZM74.8512 18.0995C74.8953 20.8653 76.6646 22.0075 78.7084 22.0075C80.1726 22.0075 81.0573 21.7533 81.8233 21.4279L82.1724 22.8922C81.4538 23.2176 80.2201 23.5904 78.4305 23.5904C74.9665 23.5904 72.8955 21.3127 72.8955 17.9165C72.8955 14.5203 74.8953 11.846 78.1729 11.846C81.847 11.846 82.8232 15.0762 82.8232 17.1471C82.8232 17.5674 82.7791 17.8894 82.752 18.0995H74.8512ZM80.8505 16.6353C80.8742 15.3338 80.315 13.3103 78.0136 13.3103C75.9426 13.3103 75.0377 15.2185 74.875 16.6353H80.8505Z" fill="#8191B2" fill-opacity="0.65"/>
</g>
<defs>
<clipPath id="clip0_65_5776">
<rect width="82" height="32" fill="white" transform="translate(0.4375)"/>
</clipPath>
</defs>
</svg>
