<svg width="135" height="32" viewBox="0 0 135 32" fill="none" xmlns="http://www.w3.org/2000/svg">
<path d="M26.7595 27.1242C26.8199 27.1358 26.8803 27.1465 26.9406 27.1572L26.7595 27.1242ZM27.2534 27.2065C27.3238 27.217 27.3941 27.2263 27.4647 27.2356L27.2534 27.2065ZM27.7757 27.2692C27.8444 27.2754 27.9128 27.2813 27.9815 27.2865L27.7757 27.2692ZM28.055 27.2916C28.1131 27.2958 28.1711 27.2993 28.2291 27.3023L28.055 27.2916ZM28.3136 27.3068C28.3823 27.3098 28.451 27.3124 28.5197 27.3146L28.3136 27.3068ZM28.588 27.3155C28.7416 27.3195 28.8951 27.3197 29.0487 27.3159L28.588 27.3155ZM29.122 27.3146C29.1936 27.3125 29.2652 27.3097 29.3367 27.3064L29.122 27.3146ZM29.4042 27.3031C29.4662 27.2997 29.5273 27.2958 29.5889 27.2916L29.4042 27.3031ZM29.653 27.2872C29.7201 27.2821 29.7874 27.2764 29.8541 27.2702L29.653 27.2872ZM30.1983 27.2318C30.2501 27.2257 30.3014 27.219 30.3525 27.211L30.1983 27.2318ZM39.6286 9.88634C39.573 9.85635 39.5159 9.8291 39.4576 9.80468L39.6286 9.88634ZM39.0683 9.68482C38.9968 9.67018 38.9247 9.65912 38.8521 9.65168L39.0683 9.68482ZM52.4905 20.1673L52.4515 20.1728L52.4905 20.1673ZM2.38509 17.1216C2.13632 16.8933 1.94729 16.6075 1.83452 16.2893C1.74275 16.0235 1.62391 15.6914 1.62391 15.4094C1.62977 14.1381 2.37175 13.1938 3.17052 12.7566C3.53353 12.5581 3.66834 12.4219 3.72372 12.352C3.69715 12.3402 3.6688 12.333 3.63985 12.3306C2.55265 12.3306 1.9952 11.9081 1.72153 11.5506C1.46221 11.2157 1.32982 10.7839 1.32982 10.3118C1.32982 10.0824 1.36216 9.84227 1.42583 9.5967C1.73224 9.09059 2.02329 9.22965 2.20156 9.48857C2.31515 9.65067 3.09352 10.2024 4.05257 10.29C4.75049 10.3563 5.12664 10.6976 5.32229 10.9703C5.54785 11.286 5.63436 11.6664 5.63436 11.99C5.63436 12.1224 5.6194 12.2467 5.5909 12.3572C5.4858 12.7837 5.03649 13.1681 4.41073 13.6579L4.05581 13.9522C3.53616 14.4069 3.25016 14.913 3.25016 15.3419C3.25016 15.4491 3.26896 15.5535 3.30514 15.65C3.32009 15.6896 3.33808 15.7278 3.3593 15.764C3.59154 16.1571 4.24782 16.4037 5.1998 16.0706C5.63982 15.918 6.4869 15.3848 7.00412 14.872C7.6127 14.2648 8.42502 14.1191 9.20722 14.0573C9.88553 14.0061 10.3031 13.8398 10.5972 13.5091C11.4663 12.5298 12.3027 12.3922 13.0855 12.334C13.385 12.311 13.4012 12.2895 13.4402 12.2368C13.8717 11.6622 14.315 11.358 14.7127 11.1809C15.0159 11.0461 15.2928 10.9846 15.5196 10.9349L15.7949 10.8672L15.8636 10.843C16.2994 10.7027 16.6367 10.5865 17.5232 9.9874L17.561 9.96355L17.5612 9.96314L17.5984 9.9399L17.5988 9.93969L17.6362 9.91766L17.6368 9.91746L17.6742 9.89604L17.6748 9.89584L17.7124 9.87603L17.7136 9.87562L17.7508 9.85622L17.752 9.85582L17.7894 9.83763L17.791 9.83722L17.8286 9.81984L17.83 9.81903L17.8678 9.80327L17.8694 9.80266L17.907 9.7871L17.9091 9.78669L17.9469 9.77254L17.9487 9.77153L17.9861 9.75819L18.0259 9.74485L18.0285 9.74425L18.0657 9.73232L18.0681 9.73171L18.1059 9.7208L18.1086 9.72019L18.1459 9.70989L18.1488 9.70908L18.1864 9.70018L18.1898 9.69938L18.2268 9.69089L18.2298 9.69008L18.2676 9.6824L18.2709 9.68159L18.3083 9.67472L18.3117 9.67411L18.3491 9.66785L18.3525 9.66744L18.3895 9.66198L18.3933 9.66118L18.4305 9.65693L18.4344 9.65612L18.471 9.65208L18.475 9.65188L18.512 9.64844L18.5162 9.64804L18.553 9.64541L18.5573 9.64501L18.5934 9.64278L18.5977 9.64258L18.6343 9.64096L18.6751 9.63975H18.6793L18.7157 9.63935H18.761L18.797 9.63975L18.8012 9.63995H18.8055C18.8313 9.64056 18.8572 9.64218 18.8831 9.64359L18.9187 9.64581L18.9237 9.64622L18.9587 9.64885L18.9639 9.64925L18.9989 9.65269L19.0043 9.65329L19.0391 9.65673L19.0448 9.65713L19.0793 9.66138L19.0848 9.66219L19.1192 9.66643L19.125 9.66744L19.159 9.67249L19.1646 9.6735L19.1988 9.67876L19.2049 9.67997L19.2382 9.68583L19.2445 9.68684L19.2776 9.69291L19.2837 9.69432C19.3366 9.70423 19.3888 9.71595 19.4399 9.72848L19.4721 9.73657L19.4785 9.73838C19.5301 9.75172 19.581 9.76587 19.6311 9.78083L19.6608 9.79013L19.6681 9.79235C19.7676 9.82368 19.864 9.85905 19.9573 9.89644L19.9836 9.90736L20.018 9.9215C21.9139 7.3459 24.9113 5.63214 28.318 5.47711V5.4763C28.4857 5.46876 28.6536 5.46492 28.8215 5.46478C28.9325 5.46486 29.0434 5.46654 29.1544 5.46984C29.2096 5.47165 29.2647 5.47388 29.3197 5.4761H29.3203C29.3749 5.47873 29.4301 5.48136 29.4848 5.48479C32.7814 5.68287 35.6847 7.34307 37.5545 9.8253C37.8215 9.73252 38.1123 9.66522 38.4092 9.64501L38.4171 9.6446L38.4452 9.64278L38.4745 9.64137L38.4816 9.64096L38.4893 9.64076L38.518 9.63995L38.5256 9.63955L38.5543 9.63935L38.562 9.63914L38.5913 9.63894H38.5984L38.6277 9.63914H38.635L38.6712 9.63975L38.7007 9.64096L38.7071 9.64117L38.7367 9.64258L38.7435 9.64298L38.7732 9.64501L38.7789 9.64541L38.809 9.64784L38.8149 9.64824L38.8452 9.65127L38.8506 9.65188C38.9232 9.65931 38.9954 9.67037 39.0669 9.68503L39.0986 9.69149L39.1029 9.6925L39.1342 9.69998L39.1387 9.70079L39.1702 9.70888L39.1744 9.70989L39.2064 9.71838L39.2098 9.71939L39.2426 9.72848L39.2456 9.72949L39.2775 9.7394L39.2812 9.74041L39.3137 9.75112L39.3165 9.75193L39.3517 9.76426L39.3846 9.77598L39.3867 9.77699L39.4194 9.78972L39.4214 9.79053L39.4548 9.80387L39.4568 9.80488C39.5144 9.82914 39.5714 9.85602 39.6278 9.88654L39.6288 9.88714L39.6622 9.90493L39.6626 9.90533L39.6959 9.92454L39.6965 9.92474L39.7299 9.94495L39.7303 9.94515L39.7632 9.96597V9.96617L39.7966 9.9876C40.4074 10.4028 40.7603 10.5857 41.0614 10.7051C41.1968 10.7591 41.3226 10.7997 41.456 10.8432L41.5261 10.8674L41.8042 10.9351C41.955 10.9683 42.1272 11.0065 42.3138 11.0675C42.7805 11.2195 43.3381 11.5146 43.8792 12.237C43.9184 12.2897 43.9358 12.3112 44.2367 12.3342C45.0187 12.3926 45.8537 12.5301 46.7264 13.5093C47.0183 13.84 47.4338 14.0061 48.112 14.0575C48.8988 14.1193 49.7085 14.2648 50.3159 14.8722C50.8337 15.385 51.6798 15.9182 52.121 16.0708C53.0726 16.4039 53.7321 16.1573 53.9589 15.7642C54.0086 15.6813 54.0419 15.5901 54.0589 15.4937C54.0678 15.4437 54.0723 15.393 54.0725 15.3421C54.0725 14.9132 53.786 14.4071 53.2678 13.9524L53.2033 13.8988L52.9095 13.6581C52.2861 13.1683 51.8366 12.7839 51.7283 12.3574C51.6998 12.2469 51.6874 12.1226 51.6874 11.9902C51.6874 11.6664 51.776 11.2862 51.9971 10.9705C52.1942 10.6978 52.5743 10.3565 53.2678 10.2902C54.2319 10.2027 55.006 9.65087 55.1192 9.48877C55.3005 9.22985 55.5888 9.0908 55.894 9.5969C55.9586 9.84248 55.991 10.0826 55.991 10.312C55.991 10.7868 55.8586 11.2159 55.5995 11.5508C55.324 11.9083 54.7684 12.3308 53.6793 12.3308C53.6563 12.3308 53.6242 12.3415 53.5973 12.3522C53.6512 12.4223 53.7861 12.5585 54.1499 12.7568C54.9486 13.1942 55.6914 14.1385 55.6981 15.4096C55.6981 15.6916 55.5807 16.0235 55.4859 16.2895C55.3868 16.5684 55.2298 16.8233 55.025 17.0371C54.9974 17.0658 54.9684 17.0941 54.9379 17.1218C54.488 17.5398 53.7386 17.8678 52.4899 17.7932C52.3584 17.7852 52.2271 17.7733 52.0963 17.7577C52.064 18.3877 51.8912 19.1365 51.648 19.5143C51.5741 19.6329 51.5595 19.7125 51.5595 19.7516C51.5595 19.7679 51.5611 19.7774 51.5611 19.7843C51.5688 19.7869 52.1151 20.1093 52.1151 20.1093L52.2033 20.154C52.2033 20.154 52.2546 20.1782 52.2613 20.1837C52.2691 20.1809 52.45 20.1728 52.45 20.1728L52.4858 20.1677L52.4895 20.1673C52.831 20.1348 53.3527 19.9676 53.5744 20.5869C53.6324 20.7512 53.6678 20.8943 53.7012 21.0211C53.7689 21.2802 53.8269 21.4726 54.0537 21.6474C54.0537 21.6474 54.1658 21.5512 54.2932 21.438C54.3915 21.3512 54.488 21.2622 54.5824 21.171C54.7405 21.0091 55.0329 21.0914 55.2437 21.171C55.457 21.2519 55.7209 21.4356 55.9075 21.5419C56.0953 21.6472 56.1987 21.7808 56.2527 21.9403C56.3091 22.0994 56.4395 22.2047 56.6384 22.31C56.8304 22.4191 57.1057 22.7688 57.1057 23.2407C57.1057 23.3131 57.1138 23.3749 57.1342 23.4406C57.1481 23.4841 57.1671 23.5294 57.1932 23.5809C57.4616 24.122 57.2461 24.3944 57.0907 24.5092C56.8817 24.6657 56.513 24.7304 56.1666 24.6738L56.1694 24.7627L55.6635 24.6952C55.4675 24.6707 55.209 24.7209 55.0546 24.753L55.0182 24.7627C54.658 24.8342 54.1871 24.7124 53.9225 24.2827C53.9128 24.2667 53.9031 24.2507 53.894 24.2337C53.759 23.9967 53.5488 23.7766 53.4459 23.7157C53.2973 23.7565 53.0627 23.8119 52.7833 23.7834C52.5242 23.7574 52.2253 23.6579 51.9213 23.4061C51.871 23.3642 51.8202 23.3179 51.7699 23.2678C51.3232 22.8197 50.7338 22.728 50.3634 22.7848L50.1424 22.824C49.6865 22.9064 49.1169 23.0115 48.5908 22.6906C48.4598 22.6107 48.271 22.5285 48.0859 22.4502C47.6083 22.2423 47.1145 22.0278 47.0472 21.5757C47.0359 21.495 46.9486 21.3477 46.8768 21.2305C46.8137 21.1268 46.745 21.0134 46.6919 20.8919C46.6407 20.7759 46.6039 20.6524 46.6005 20.5234C46.4441 20.5637 46.2826 20.5802 46.1213 20.5724C46.0643 20.5695 46.0075 20.5639 45.9511 20.5556L45.7437 20.5234C45.3943 20.4638 44.6624 20.3436 44.4293 20.4287C43.9653 20.596 42.505 20.6769 42.1046 20.5853C42.1046 20.5853 41.9572 20.553 41.8184 20.5234C41.685 20.6611 41.5362 20.7902 41.3798 20.9053C41.6728 20.9212 41.9305 20.8848 42.1076 20.9305L42.4755 21.0275C42.5929 20.9928 42.8801 20.9968 43.0432 21.0116L43.4741 21.0439L43.9657 21.0912C44.2026 21.1387 44.454 21.241 44.4109 21.705C44.3944 21.8481 44.3143 22.0505 44.1939 22.1693C44.1276 22.2421 43.8707 22.6146 43.8143 22.7318L43.7959 22.7684C43.6959 22.9816 43.5475 23.1775 43.1156 23.1775C43.0607 23.1767 43.0059 23.1789 42.9512 23.1839C42.9381 23.2189 42.9027 23.2838 42.9027 23.2838C42.8055 23.5049 42.665 23.8127 42.3966 23.9908L42.3249 24.0423C42.1094 24.1962 41.7505 24.4496 41.2009 24.2501L41.0117 24.1824C40.5327 24.0098 39.8083 23.7509 39.4427 23.551L39.3913 23.5227C39.0507 23.3363 38.9754 23.2989 38.8517 23.3163L38.7829 23.327C38.5218 23.3636 38.0294 23.4297 37.6891 22.8654L37.6579 22.8165C36.044 25.0317 33.6182 26.6173 30.8184 27.135L30.8061 27.1376C30.7107 27.155 30.6145 27.1711 30.5183 27.1863L30.4825 27.1916L30.3509 27.211C30.2998 27.2186 30.2485 27.2255 30.1967 27.232L30.1029 27.2437L29.955 27.2597L29.8525 27.2704C29.7858 27.2766 29.7185 27.2823 29.6514 27.2874L29.5877 27.2916C29.5261 27.2958 29.465 27.2999 29.403 27.3031L29.3355 27.3068C29.2639 27.3102 29.1928 27.3128 29.1208 27.3151L29.0479 27.3163C28.8943 27.3201 28.7407 27.3199 28.5872 27.3159L28.5185 27.3151C28.4498 27.3128 28.3811 27.3102 28.3123 27.3072L28.2283 27.3025C28.1703 27.2993 28.1123 27.2963 28.0542 27.2918L27.9805 27.287C27.9118 27.2817 27.8433 27.2759 27.7747 27.2696L27.6732 27.2591L27.5388 27.2445L27.4639 27.2358C27.3933 27.2272 27.3229 27.2174 27.2526 27.2065L27.1675 27.194L27.0172 27.1705L26.9398 27.1576C26.8793 27.1469 26.8189 27.1364 26.7587 27.1247L26.6283 27.0986L26.5616 27.085C26.4725 27.0656 26.3827 27.0464 26.2942 27.025L26.2707 27.0196L26.1315 26.9856L26.0599 26.9672C25.9769 26.9458 25.8942 26.9227 25.8117 26.8997L25.7822 26.891C23.3273 26.1828 21.2295 24.6368 19.8153 22.5832L19.6291 22.8666C19.292 23.4309 18.8006 23.3646 18.536 23.3283L18.4673 23.3175C18.344 23.3002 18.266 23.3376 17.9287 23.5239L17.8745 23.5522C17.5101 23.7521 16.7885 24.011 16.3069 24.1836L16.1173 24.2513C15.5681 24.4508 15.2079 24.197 14.9965 24.0436L14.9223 23.992C14.6537 23.8141 14.5147 23.5063 14.416 23.285C14.416 23.285 14.3837 23.2201 14.3679 23.1852C14.3132 23.1801 14.2582 23.178 14.2032 23.1787C13.7753 23.1787 13.6227 22.9828 13.5243 22.7696L13.5069 22.733C13.4489 22.6158 13.1952 22.2433 13.1251 22.1705C13.0065 22.0519 12.9222 21.8493 12.9088 21.7062C12.8644 21.2422 13.1192 21.1399 13.3539 21.0924L13.8457 21.0451L14.2774 21.0128C14.4379 20.998 14.7253 20.994 14.8425 21.0287L15.2108 20.9317C15.386 20.8861 15.6463 20.9224 15.9368 20.9065C15.7824 20.7895 15.6363 20.6619 15.4996 20.5247C15.3591 20.5542 15.2132 20.5865 15.2132 20.5865C14.8116 20.6781 13.3539 20.5972 12.8927 20.4299C12.6582 20.3448 11.9269 20.4648 11.5759 20.5247L11.3652 20.5568C11.1504 20.5898 10.931 20.5789 10.7205 20.5247C10.7094 20.7888 10.5663 21.0287 10.4436 21.2317C10.3722 21.3489 10.2819 21.4962 10.271 21.5769C10.2079 22.029 9.70807 22.2435 9.23188 22.4515C9.04694 22.5297 8.86099 22.6119 8.72901 22.6918C8.20673 23.0127 7.63453 22.9076 7.17713 22.8252L6.95561 22.786C6.58715 22.7292 5.99736 22.8209 5.54967 23.269C4.86509 23.952 4.18395 23.8018 3.8737 23.7169C3.77102 23.7778 3.5594 23.9979 3.4254 24.235C3.16668 24.7047 2.6725 24.8381 2.3002 24.7639L2.26281 24.7542C2.11 24.7221 1.85473 24.6719 1.65928 24.6964L1.15034 24.7639L1.1558 24.675C0.807547 24.7316 0.437669 24.6667 0.227869 24.5104C0.0736516 24.3956 -0.142414 24.1232 0.130447 23.5821C0.193711 23.4524 0.215337 23.3622 0.215337 23.2419C0.215337 22.7698 0.4884 22.4203 0.680009 22.3112C0.880916 22.2059 1.0131 22.1006 1.06687 21.9415C1.11962 21.782 1.2231 21.6484 1.41108 21.5431C1.59702 21.4368 1.8616 21.2531 2.07362 21.1723C2.28524 21.0926 2.57771 21.0104 2.73718 21.1723C2.89787 21.3287 3.26592 21.6484 3.26592 21.6484C3.60367 21.3877 3.57133 21.0872 3.74636 20.5877C3.96526 19.9684 4.48895 20.1356 4.82891 20.1681L4.86792 20.1736C4.86792 20.1736 5.05124 20.1817 5.0567 20.1845C5.0662 20.179 5.11754 20.1548 5.11754 20.1548L5.20263 20.1101C5.20263 20.1101 5.75159 19.7877 5.75704 19.7851C5.75947 19.7784 5.75947 19.7687 5.75947 19.7524C5.75947 19.7134 5.74613 19.6337 5.67195 19.5151C5.42779 19.1371 5.25518 18.3885 5.22385 17.7585C5.13573 17.769 5.05064 17.7777 4.96696 17.7843C3.63742 17.8911 2.84734 17.5547 2.38509 17.1216Z" fill="#8191B2" fill-opacity="0.25"/>
<path d="M5.65654 17.2985C5.65654 17.2985 5.54578 18.3707 6.02884 19.3156C6.02884 19.3156 6.3868 19.823 6.0151 20.1488L5.27514 20.5789C5.27514 20.5789 5.1757 20.6529 4.84564 20.6278C4.84564 20.6278 4.38946 20.5148 4.23706 20.7163C4.23706 20.7163 4.10467 21.1038 3.93893 21.4231C3.93893 21.4231 3.602 22.1973 3.04436 22.4453C3.04436 22.4453 2.5999 22.5471 2.46508 22.9326C2.46508 22.9326 2.32178 23.203 2.03477 23.2149C2.03477 23.2149 1.82073 23.2828 1.67904 23.7596C1.67904 23.7596 1.60184 24.0681 1.60588 24.3046C1.60588 24.3046 1.9709 24.2567 2.2088 24.3428C2.2088 24.3428 2.79373 24.5392 3.05527 24.0574C3.05527 24.0574 3.56057 23.1921 3.9353 23.3223C3.9353 23.3223 4.68799 23.5741 5.21956 23.0247C5.21956 23.0247 5.94982 22.227 6.98123 22.3911C6.98123 22.3911 8.14301 22.6264 8.50541 22.3584C8.50541 22.3584 9.23809 21.9753 9.51297 21.8803C9.51297 21.8803 9.84929 21.7815 9.88406 21.4132C9.88406 21.4132 10.0886 20.8952 10.2374 20.7226L9.68315 20.7163C9.68315 20.7163 9.18129 21.5604 8.32855 21.8149C8.32855 21.8149 7.86226 22.0012 6.92625 21.8498C6.92625 21.8498 5.58236 21.5454 4.40199 22.8202C4.40199 22.8202 4.2407 23.0532 4.01048 22.9601C4.01048 22.9601 4.66272 21.8478 6.09473 21.5842C6.09473 21.5842 6.56345 21.4846 6.95434 21.5481C6.95434 21.5481 8.88316 21.6046 9.77754 19.7057C9.77754 19.7057 9.68073 18.0868 10.1078 17.7033C10.1078 17.7033 10.2727 17.6528 10.2398 17.9659C10.2398 17.9659 9.94631 19.6619 10.4975 19.9903C10.4975 19.9903 10.8174 20.2418 11.4094 20.1488C11.4094 20.1488 12.3069 19.9343 13.0363 20.0592C13.0363 20.0592 14.1581 20.3254 15.122 20.2023C15.122 20.2023 14.8717 19.8191 14.9209 19.3609C14.9209 19.3609 15.0589 19.0329 15.2172 19.2439C15.2172 19.2439 15.5881 20.4691 16.6017 20.8368C16.6017 20.8368 17.507 21.1665 17.4922 22.3147C17.4922 22.3147 17.3536 22.4721 16.1532 22.8986C16.1532 22.8986 15.7047 23.0403 15.5602 22.7052C15.5602 22.7052 14.9813 21.4662 14.4774 21.5044L13.5313 21.5812C13.5313 21.5812 13.2085 21.6639 13.4462 21.9226C13.4462 21.9226 13.7702 22.3533 13.9026 22.6104C13.9026 22.6104 13.9412 22.8301 14.2456 22.7834C14.2456 22.7834 14.6678 22.5742 14.9059 23.3596C14.9059 23.3596 15.1238 23.7524 15.4927 23.8779C15.4927 23.8779 15.8377 23.9931 16.1615 23.8114C16.1615 23.8114 17.724 23.2378 17.9961 23.0344C17.9961 23.0344 18.334 22.8453 18.602 22.9362C18.602 22.9362 19.0708 23.048 19.2638 22.6781L19.7481 21.9288C19.7481 21.9288 19.8544 21.7443 19.8396 21.5125C19.8396 21.5125 19.8835 21.2829 19.6898 21.0494C19.6898 21.0494 19.5069 20.856 19.478 20.7159L19.1328 19.9046C19.1328 19.9046 18.9929 19.688 18.8393 19.5988L18.3785 19.6326C18.3785 19.6326 18.6956 20.4431 18.9279 20.7733C18.9279 20.7733 19.2422 21.254 19.2262 21.5596C19.2262 21.5596 19.2054 21.7738 19.1209 21.8632C19.1209 21.8632 19.0146 22.0333 18.9717 22.116C18.9717 22.116 18.8321 22.4192 18.7187 22.4865C18.7187 22.4865 18.5226 22.6025 18.4749 22.6072C18.4749 22.6072 18.3896 22.6308 18.4529 22.478C18.4529 22.478 18.7112 21.9345 18.6942 21.6439C18.6942 21.6439 18.7443 21.3411 18.5301 21.1638C18.5301 21.1638 18.028 20.3713 17.9561 20.1344C17.9561 20.1344 17.7986 19.8175 17.7147 19.7631C17.7147 19.7631 17.5393 19.5325 17.8225 19.4246C17.8225 19.4246 18.5279 19.2653 18.6542 19.1788C18.6542 19.1788 18.9933 19.0761 19.2137 18.3697C19.2137 18.3697 19.517 17.5459 19.5126 17.0374C19.5126 17.0374 20.1072 18.1838 19.1589 19.3496C19.1589 19.3496 19.9093 19.5709 20.2198 19.3496C20.2198 19.3496 21.1546 19.213 21.3351 19.1632C21.3351 19.1632 21.5702 19.1065 21.436 19.2732C21.436 19.2732 21.154 19.6742 21.1301 19.937C21.1301 19.937 21.112 20.1462 20.9406 20.2686C20.9406 20.2686 20.4092 20.6407 20.3625 20.9971C20.3625 20.9971 20.2489 21.3401 20.4836 21.258C20.4836 21.258 20.8017 21.1107 20.9141 21.259C20.9141 21.259 20.947 21.2746 20.8243 21.4122C20.8243 21.4122 20.5052 21.6899 20.4813 22.0626C20.4813 22.0626 20.5404 22.4928 20.6531 22.631C20.6531 22.631 20.7969 22.8303 21.024 22.767C21.024 22.767 21.0843 22.7183 21.193 22.7511C21.193 22.7511 21.3054 22.7507 21.5989 22.6492C21.5989 22.6492 22.0437 22.5269 22.1925 22.4744C22.1925 22.4744 22.7588 22.2718 23.0381 22.286C23.0381 22.286 23.2199 22.266 23.4515 22.3123C23.4515 22.3123 24.1597 22.3927 24.6317 21.871C24.6317 21.871 24.9908 21.5863 25.1127 21.8628C25.1127 21.8628 25.9743 23.0189 27.3689 22.7143C27.3689 22.7143 26.2593 22.2579 25.9715 21.6364C25.9715 21.6364 25.9331 21.1086 25.3518 20.3758C25.3518 20.3758 25.1741 20.1326 25.3455 20.0693C25.3455 20.0693 25.4448 19.9952 25.6612 20.2125C25.6612 20.2125 26.2134 20.7422 26.4129 21.2271C26.4129 21.2271 27.0987 22.2634 28.0871 21.9151C28.0871 21.9151 27.3111 21.6158 26.9465 21.0575C26.9465 21.0575 26.7212 20.302 25.9636 19.7399C25.9636 19.7399 25.9339 18.8908 25.5806 18.4136C25.5806 18.4136 25.4005 17.6162 25.352 17.4299C25.352 17.4299 25.1614 16.7295 25.1626 16.5361C25.1626 16.5361 25.2257 15.6213 24.6359 14.9092C24.6359 14.9092 24.2408 14.1475 23.6253 13.6167C23.6253 13.6167 23.1576 13.0388 22.8098 12.6849C22.8098 12.6849 22.3522 12.1485 21.3545 11.4486C21.3545 11.4486 20.9028 11.1201 20.5719 10.767C20.5719 10.767 18.812 9.50033 17.5407 10.5164C17.5407 10.5164 16.6627 11.1136 15.9294 11.2986C15.9294 11.2986 14.4224 11.474 13.7799 12.52C13.7799 12.52 13.7249 12.7132 13.1176 12.7868C13.1176 12.7868 11.7834 12.6257 10.8011 13.9379C10.8011 13.9379 10.3447 14.3833 9.44121 14.4917C9.44121 14.4917 7.96777 14.3409 7.00851 15.4705C7.00851 15.4705 4.58794 17.5821 3.14461 16.2127C3.14461 16.2127 2.39677 15.5047 3.25173 14.2226C3.25173 14.2226 3.79402 13.5682 4.71911 12.8844C4.71911 12.8844 5.46958 12.3557 5.12557 11.5337C5.12557 11.5337 4.94387 10.7393 3.81908 10.7183C3.81908 10.7183 2.40768 10.4456 1.8369 9.73297C1.8369 9.73297 1.19962 11.9775 3.70084 11.9401C3.70084 11.9401 4.35267 12.0365 4.12509 12.554C4.12509 12.554 3.80554 12.9966 3.37664 13.1577C3.37664 13.1577 2.62213 13.4877 2.28116 14.5865C2.28116 14.5865 1.51917 16.5098 3.37826 17.2522C4.09376 17.4994 4.92022 17.4266 5.65654 17.2985ZM2.07722 21.8308C2.17808 21.7465 2.32582 21.699 2.457 21.7298C2.7529 21.7934 2.57382 22.0497 2.57382 22.0497C2.45397 22.2739 2.06287 22.652 2.06287 22.652C1.71502 22.9126 1.43953 22.6023 1.43953 22.6023C1.18183 22.3482 1.51715 22.2254 1.51715 22.2254C1.71219 22.1461 2.07722 21.8308 2.07722 21.8308ZM1.3314 23.033C1.3314 23.033 1.43953 23.1129 1.38173 23.2705C1.38173 23.2705 1.10563 24.0262 1.11857 24.2799C1.11857 24.2799 0.507564 24.389 0.422876 24.0875C0.422876 24.0875 0.406505 23.9711 0.50615 23.8023C0.50615 23.8023 0.609837 23.6448 0.636719 23.3568C0.636719 23.3568 0.627623 22.632 1.09715 22.824C1.19032 22.8762 1.26389 22.952 1.3314 23.033ZM22.8672 21.4993C22.7596 21.4967 22.7323 21.4573 22.7453 21.3389C22.8174 21.0096 23.0814 20.8675 23.0814 20.8675C23.5766 20.5716 23.6368 20.8679 23.6368 20.8679C23.7276 21.3965 23.3098 21.463 23.3098 21.463C23.2263 21.4917 22.8672 21.4993 22.8672 21.4993ZM24.361 19.139C24.3701 18.891 24.3911 18.3398 24.1391 18.143C24.0461 18.069 23.6783 17.6662 23.6783 17.6662C23.6223 17.5685 23.5792 17.5625 23.5792 17.5625C23.5034 17.5552 23.4056 17.7314 23.4056 17.7314C23.1437 18.2369 22.8823 18.1753 22.8823 18.1753C22.8801 18.0831 22.9417 17.9802 22.9417 17.9802C23.0682 17.7347 23.1934 17.4885 23.3175 17.2417C23.3557 17.154 23.3908 17.0372 23.3908 17.0372C23.6437 16.6452 23.882 16.9436 23.882 16.9436C23.9883 17.1512 24.5553 17.8274 24.5553 17.8274C24.681 17.977 24.6931 18.1377 24.6931 18.1377C24.8245 19.064 24.361 19.139 24.361 19.139ZM19.1393 13.5472C19.0619 13.4079 19.0938 13.2658 19.1716 13.1304C19.3471 12.8616 19.511 13.1549 19.511 13.1549C20.1167 13.9993 19.6694 15.2636 19.6694 15.2636C19.6072 14.1 19.1393 13.5472 19.1393 13.5472ZM51.6628 17.2985C51.6628 17.2985 51.7736 18.3707 51.2905 19.3156C51.2905 19.3156 50.9326 19.823 51.3043 20.1488L52.0444 20.5789C52.0444 20.5789 52.1437 20.6529 52.4739 20.6278C52.4739 20.6278 52.9299 20.5148 53.0821 20.7163C53.0821 20.7163 53.2147 21.1038 53.3802 21.4231C53.3802 21.4231 53.7178 22.1973 54.2754 22.4453C54.2754 22.4453 54.7197 22.5471 54.8541 22.9326C54.8541 22.9326 54.9978 23.203 55.2844 23.2149C55.2844 23.2149 55.4988 23.2828 55.6403 23.7596C55.6403 23.7596 55.7177 24.0681 55.7139 24.3046C55.7139 24.3046 55.3487 24.2567 55.1106 24.3428C55.1106 24.3428 54.5258 24.5392 54.2643 24.0574C54.2643 24.0574 53.759 23.1921 53.3843 23.3223C53.3843 23.3223 52.6318 23.5741 52.1 23.0247C52.1 23.0247 51.3699 22.227 50.3383 22.3911C50.3383 22.3911 49.177 22.6264 48.8144 22.3584C48.8144 22.3584 48.0817 21.9753 47.8068 21.8803C47.8068 21.8803 47.4703 21.7815 47.4359 21.4132C47.4359 21.4132 47.2312 20.8952 47.0824 20.7226L47.6364 20.7163C47.6364 20.7163 48.1381 21.5604 48.9908 21.8149C48.9908 21.8149 49.4575 22.0012 50.3931 21.8498C50.3931 21.8498 51.7372 21.5454 52.9176 22.8202C52.9176 22.8202 53.0791 23.0532 53.3089 22.9601C53.3089 22.9601 52.657 21.8478 51.2248 21.5842C51.2248 21.5842 50.7563 21.4846 50.365 21.5481C50.365 21.5481 48.4362 21.6046 47.5414 19.7057C47.5414 19.7057 47.6386 18.0868 47.2116 17.7033C47.2116 17.7033 47.047 17.6528 47.0794 17.9659C47.0794 17.9659 47.3726 19.6619 46.8219 19.9903C46.8219 19.9903 46.5017 20.2418 45.9097 20.1488C45.9097 20.1488 45.0125 19.9343 44.2833 20.0592C44.2833 20.0592 43.1611 20.3254 42.1972 20.2023C42.1972 20.2023 42.4476 19.8191 42.3985 19.3609C42.3985 19.3609 42.2603 19.0329 42.102 19.2439C42.102 19.2439 41.7311 20.4691 40.7173 20.8368C40.7173 20.8368 39.812 21.1665 39.8267 22.3147C39.8267 22.3147 39.9658 22.4721 41.1664 22.8986C41.1664 22.8986 41.6151 23.0403 41.7596 22.7052C41.7596 22.7052 42.3379 21.4662 42.8419 21.5044L43.7885 21.5812C43.7885 21.5812 44.1111 21.6639 43.8732 21.9226C43.8732 21.9226 43.5496 22.3533 43.4168 22.6104C43.4168 22.6104 43.3786 22.8301 43.074 22.7834C43.074 22.7834 42.6518 22.5742 42.4133 23.3596C42.4133 23.3596 42.1958 23.7524 41.8269 23.8779C41.8269 23.8779 41.4817 23.9931 41.1581 23.8114C41.1581 23.8114 39.5955 23.2378 39.3237 23.0344C39.3237 23.0344 38.9855 22.8453 38.7177 22.9362C38.7177 22.9362 38.2494 23.048 38.0564 22.6781L37.5721 21.9288C37.5721 21.9288 37.4654 21.7443 37.4803 21.5125C37.4803 21.5125 37.4363 21.2829 37.6301 21.0494C37.6301 21.0494 37.8132 20.856 37.8419 20.7159L38.1874 19.9046C38.1874 19.9046 38.3272 19.688 38.4806 19.5988L38.9419 19.6326C38.9419 19.6326 38.6243 20.4431 38.3919 20.7733C38.3919 20.7733 38.0776 21.254 38.0936 21.5596C38.0936 21.5596 38.1146 21.7738 38.1989 21.8632C38.1989 21.8632 38.3052 22.0333 38.3482 22.116C38.3482 22.116 38.4873 22.4192 38.6011 22.4865C38.6011 22.4865 38.7969 22.6025 38.8448 22.6072C38.8448 22.6072 38.9303 22.6308 38.8663 22.478C38.8663 22.478 38.6088 21.9345 38.6251 21.6439C38.6251 21.6439 38.5754 21.3411 38.7893 21.1638C38.7893 21.1638 39.2917 20.3713 39.3641 20.1344C39.3641 20.1344 39.5209 19.8175 39.605 19.7631C39.605 19.7631 39.7805 19.5325 39.4973 19.4246C39.4973 19.4246 38.7921 19.2653 38.6658 19.1788C38.6658 19.1788 38.3266 19.0761 38.1061 18.3697C38.1061 18.3697 37.8029 17.5459 37.8072 17.0374C37.8072 17.0374 37.2125 18.1838 38.1611 19.3496C38.1611 19.3496 37.4106 19.5709 37.1002 19.3496C37.1002 19.3496 36.1656 19.213 35.9845 19.1632C35.9845 19.1632 35.75 19.1065 35.8838 19.2732C35.8838 19.2732 36.1656 19.6742 36.1898 19.937C36.1898 19.937 36.2076 20.1462 36.3794 20.2686C36.3794 20.2686 36.9108 20.6407 36.9571 20.9971C36.9571 20.9971 37.0709 21.3401 36.836 21.258C36.836 21.258 36.5181 21.1107 36.4057 21.259C36.4057 21.259 36.3727 21.2746 36.4954 21.4122C36.4954 21.4122 36.8146 21.6899 36.8382 22.0626C36.8382 22.0626 36.7792 22.4928 36.6662 22.631C36.6662 22.631 36.5227 22.8303 36.2955 22.767C36.2955 22.767 36.2355 22.7183 36.1262 22.7511C36.1262 22.7511 36.014 22.7507 35.7205 22.6492C35.7205 22.6492 35.2756 22.5269 35.1269 22.4744C35.1269 22.4744 34.5605 22.2718 34.281 22.286C34.281 22.286 34.0993 22.266 33.8677 22.3123C33.8677 22.3123 33.1592 22.3927 32.6873 21.871C32.6873 21.871 32.3281 21.5863 32.2067 21.8628C32.2067 21.8628 31.3448 23.0189 29.95 22.7143C29.95 22.7143 31.0602 22.2579 31.3479 21.6364C31.3479 21.6364 31.3859 21.1086 31.9671 20.3758C31.9671 20.3758 32.1446 20.1326 31.9732 20.0693C31.9732 20.0693 31.8742 19.9952 31.6575 20.2125C31.6575 20.2125 31.1059 20.7422 30.9062 21.2271C30.9062 21.2271 30.22 22.2634 29.2321 21.9151C29.2321 21.9151 30.0076 21.6158 30.3722 21.0575C30.3722 21.0575 30.5976 20.302 31.3557 19.7399C31.3557 19.7399 31.3853 18.8908 31.7388 18.4136C31.7388 18.4136 31.919 17.6162 31.9671 17.4299C31.9671 17.4299 32.1575 16.7295 32.1563 16.5361C32.1563 16.5361 32.0933 15.6213 32.6833 14.9092C32.6833 14.9092 33.0782 14.1475 33.6943 13.6167C33.6943 13.6167 34.1618 13.0388 34.5094 12.6849C34.5094 12.6849 34.9672 12.1485 35.9649 11.4486C35.9649 11.4486 36.4164 11.1201 36.7471 10.767C36.7471 10.767 38.5067 9.50033 39.7784 10.5164C39.7784 10.5164 40.6564 11.1136 41.3901 11.2986C41.3901 11.2986 42.8967 11.474 43.5389 12.52C43.5389 12.52 43.5938 12.7132 44.2012 12.7868C44.2012 12.7868 45.5354 12.6257 46.5179 13.9379C46.5179 13.9379 46.9743 14.3833 47.8779 14.4917C47.8779 14.4917 49.3506 14.3409 50.3098 15.4705C50.3098 15.4705 52.7306 17.5821 54.1741 16.2127C54.1741 16.2127 54.9216 15.5047 54.0668 14.2226C54.0668 14.2226 53.5247 13.5682 52.5998 12.8844C52.5998 12.8844 51.8488 12.3557 52.1932 11.5337C52.1932 11.5337 52.3749 10.7393 53.4997 10.7183C53.4997 10.7183 54.9111 10.4456 55.4816 9.73297C55.4816 9.73297 56.1193 11.9775 53.6177 11.9401C53.6177 11.9401 52.9657 12.0365 53.1935 12.554C53.1935 12.554 53.513 12.9966 53.9419 13.1577C53.9419 13.1577 54.6964 13.4877 55.0376 14.5865C55.0376 14.5865 55.7998 16.5098 53.9399 17.2522C53.2254 17.4994 52.3991 17.4266 51.6628 17.2985ZM55.2423 21.8308C55.1413 21.7465 54.9935 21.699 54.8628 21.7298C54.5665 21.7934 54.7457 22.0497 54.7457 22.0497C54.8658 22.2739 55.2569 22.652 55.2569 22.652C55.6051 22.9126 55.8802 22.6023 55.8802 22.6023C56.1375 22.3482 55.802 22.2254 55.802 22.2254C55.6074 22.1461 55.2423 21.8308 55.2423 21.8308ZM55.9878 23.033C55.9878 23.033 55.8802 23.1129 55.9374 23.2705C55.9374 23.2705 56.2135 24.0262 56.2008 24.2799C56.2008 24.2799 56.8122 24.389 56.8963 24.0875C56.8963 24.0875 56.9127 23.9711 56.8132 23.8023C56.8132 23.8023 56.7095 23.6448 56.6826 23.3568C56.6826 23.3568 56.6919 22.632 56.2224 22.824C56.129 22.8762 56.0555 22.952 55.9878 23.033ZM34.452 21.4993C34.5597 21.4967 34.5874 21.4573 34.5741 21.3389C34.5017 21.0096 34.2382 20.8675 34.2382 20.8675C33.743 20.5716 33.6825 20.8679 33.6825 20.8679C33.5922 21.3965 34.0098 21.463 34.0098 21.463C34.0932 21.4917 34.452 21.4993 34.452 21.4993ZM32.9585 19.139C32.9492 18.891 32.928 18.3398 33.1805 18.143C33.2738 18.069 33.6413 17.6662 33.6413 17.6662C33.6973 17.5685 33.7403 17.5625 33.7403 17.5625C33.8157 17.5552 33.9142 17.7314 33.9142 17.7314C34.1757 18.2369 34.4374 18.1753 34.4374 18.1753C34.4395 18.0831 34.3774 17.9802 34.3774 17.9802C34.251 17.7347 34.1258 17.4885 34.0019 17.2417C33.9742 17.1747 33.9497 17.1065 33.9285 17.0372C33.6757 16.6452 33.4376 16.9436 33.4376 16.9436C33.3313 17.1512 32.7645 17.8274 32.7645 17.8274C32.6895 17.9154 32.6414 18.0231 32.6261 18.1377C32.4953 19.064 32.9585 19.139 32.9585 19.139ZM38.1801 13.5472C38.2575 13.4079 38.2256 13.2658 38.1477 13.1304C37.9723 12.8616 37.8088 13.1549 37.8088 13.1549C37.2028 13.9993 37.6501 15.2636 37.6501 15.2636C37.712 14.1 38.1801 13.5472 38.1801 13.5472Z" fill="#8191B2" fill-opacity="0.65"/>
<path d="M66.3848 8.61813V24.1087H69.5105V11.5745H70.9832C70.9832 11.5745 73.2821 11.471 73.2821 13.5638C73.2821 15.6565 71.2411 15.6044 71.2411 15.6044H70.4918V19.1699L73.6182 24.1091H77.2861L72.9205 17.7753C72.9205 17.7753 76.5113 17.4653 76.5113 13.5642C76.5113 9.66369 73.7987 8.61874 70.1824 8.61874L66.3848 8.61813ZM112.085 15.8637C112.085 15.8637 113.454 14.7989 113.454 12.7812C113.454 10.7624 111.988 8.94253 108.866 8.94253H103.637V24.1089H110.077C110.077 24.1089 114.693 24.0566 114.693 19.8854C114.693 17.4641 113.753 16.5367 112.085 15.8637ZM109.566 21.4692H106.763V11.5871H108.261C108.261 11.5871 110.297 11.4342 110.297 13.2103C110.297 14.9863 108.678 14.8296 108.678 14.8296H107.745V17.4919H109.565C110.043 17.4919 111.563 17.7234 111.563 19.4729C111.563 21.222 109.566 21.4692 109.566 21.4692ZM131.796 8.31354H134.716V24.1089H131.796V8.31354ZM126.772 8.31354H129.73V24.1089H126.772V8.31354ZM115.573 14.8559H118.569V20.1514C118.569 20.1514 118.673 21.9347 120.352 21.9347C122.031 21.9347 122.006 20.1514 122.006 20.1514V14.881H125.028V20.3329C125.028 20.3329 125.415 24.5954 120.429 24.5954C115.443 24.5954 115.573 20.8495 115.573 20.1779V14.8559ZM95.7068 8.31354V15.4762C95.7068 15.4762 94.26 14.3656 92.6057 14.3656C90.9529 14.3656 88.1629 15.528 88.1629 19.196C88.1629 22.8643 90.5398 24.2601 92.5804 24.2601C94.6216 24.2601 95.7583 22.9164 95.7583 22.9164V24.1093H98.7028V8.31374H95.7068V8.31354ZM93.4329 21.6756C93.2777 21.6756 91.3402 21.7017 91.3402 19.3252C91.3402 16.948 93.4584 16.8706 93.4584 16.8706C93.4584 16.8706 95.8355 16.948 95.8355 19.2732C95.8355 21.5984 93.5878 21.6756 93.4329 21.6756ZM82.2725 14.3652C87.2843 14.3652 87.0775 19.248 87.0775 19.248V20.0225H80.2835C80.2835 21.1329 81.2132 22.0891 82.4793 22.0891C83.745 22.0891 84.3909 20.875 84.3909 20.875L86.7931 22.0631C85.6825 23.7429 84.1842 24.4139 82.5052 24.4139C77.2865 24.4139 77.1832 20.0742 77.1832 19.5319C77.1832 18.989 77.2612 14.3652 82.2725 14.3652ZM80.3348 18.2396H84.0554C84.0554 18.2396 83.9004 16.4836 82.2212 16.4836C80.542 16.4834 80.3348 18.2396 80.3348 18.2396Z" fill="#8191B2" fill-opacity="0.65"/>
</svg>
