<svg width="84" height="32" viewBox="0 0 84 32" fill="none" xmlns="http://www.w3.org/2000/svg">
<path d="M10.4263 3.90063H11.1623C13.7176 3.95841 16.2312 5.02719 18.0366 6.91923C17.37 7.62694 16.6895 8.30576 16.0368 9.01347C15.023 8.06023 13.8009 7.32364 12.4677 7.06366C10.4957 6.63037 8.37091 7.02033 6.7183 8.19022C4.91292 9.41788 3.69082 11.4977 3.42696 13.7219C3.13532 15.9172 3.73248 18.2281 5.10735 19.9324C6.42666 21.5934 8.44035 22.6333 10.5235 22.7055C12.4677 22.821 14.4953 22.2 15.9118 20.7846C17.0228 19.788 17.5367 18.2715 17.7033 16.7983C15.398 16.7983 13.0927 16.8127 10.7873 16.7983V13.823H20.4947C20.9947 17.0149 20.2725 20.6112 17.9394 22.8932C16.384 24.5109 14.2314 25.4641 12.0372 25.6519C9.91243 25.8685 7.7182 25.4497 5.8295 24.3809C3.56583 23.1243 1.76045 21.0012 0.871652 18.5026C0.0384007 16.2061 0.0245132 13.6064 0.802214 11.2955C1.51048 9.18679 2.87145 7.32364 4.62128 6.02376C6.30167 4.73833 8.34314 4.03062 10.4263 3.90063Z" fill="#8191B2" fill-opacity="0.65"/>
<path d="M66.1133 4.65253H69.0852V25.2772C68.0992 25.2772 67.0993 25.2917 66.1133 25.2628C66.1272 18.4023 66.1133 11.5274 66.1133 4.65253V4.65253Z" fill="#8191B2" fill-opacity="0.65"/>
<path d="M27.1064 11.8006C28.9395 11.4395 30.9255 11.8439 32.4392 12.9849C33.8141 13.9959 34.7723 15.5847 35.0639 17.3178C35.4389 19.3254 34.9667 21.5208 33.7169 23.1095C32.3698 24.886 30.1616 25.8392 28.0091 25.6948C26.037 25.5792 24.1206 24.5538 22.954 22.8784C21.6347 21.0297 21.3153 18.4877 22.0374 16.3213C22.7596 13.9959 24.801 12.2195 27.1064 11.8006V11.8006ZM27.523 14.5448C26.7731 14.747 26.0787 15.1947 25.5788 15.8302C24.2317 17.5056 24.315 20.2353 25.801 21.7952C26.6481 22.6906 27.9257 23.1095 29.1062 22.864C30.2033 22.6618 31.1615 21.8963 31.6893 20.8853C32.6058 19.1665 32.342 16.7979 30.9393 15.4547C30.0367 14.5881 28.7173 14.227 27.523 14.5448Z" fill="#8191B2" fill-opacity="0.65"/>
<path d="M41.8286 11.8017C43.9256 11.3828 46.217 11.9894 47.7863 13.5204C50.3416 15.9035 50.6194 20.3664 48.439 23.1106C47.1197 24.8437 44.981 25.797 42.8701 25.6959C40.8564 25.6381 38.8705 24.5982 37.6762 22.8795C36.3291 20.9874 36.0375 18.3877 36.8013 16.1779C37.5651 13.9248 39.5649 12.2061 41.8286 11.8017V11.8017ZM42.2452 14.5458C41.4953 14.748 40.8009 15.1958 40.3009 15.8168C38.9677 17.4633 39.0233 20.1497 40.4537 21.724C41.3008 22.6628 42.6202 23.125 43.8423 22.865C44.9255 22.6484 45.8976 21.8973 46.4253 20.8863C47.328 19.1532 47.0642 16.7845 45.6476 15.4413C44.745 14.5747 43.4256 14.2281 42.2452 14.5458Z" fill="#8191B2" fill-opacity="0.65"/>
<path d="M54.3059 12.6398C55.9029 11.5999 58.0277 11.3111 59.7498 12.2065C60.2914 12.4521 60.7358 12.8709 61.1663 13.2898C61.1802 12.8998 61.1663 12.4954 61.1802 12.091C62.1107 12.1054 63.0411 12.091 63.9855 12.1054V24.8442C63.9716 26.7651 63.4994 28.8016 62.1662 30.2026C60.708 31.748 58.4721 32.2246 56.4584 31.9068C54.3059 31.5746 52.431 29.9426 51.5978 27.8772C52.431 27.4584 53.306 27.1262 54.167 26.7362C54.653 27.9206 55.6391 28.9316 56.8751 29.1627C58.111 29.3937 59.5415 29.076 60.3469 28.0072C61.208 26.9095 61.208 25.4075 61.1663 24.0643C60.5275 24.7142 59.7914 25.2919 58.9026 25.5086C56.9723 26.0718 54.8475 25.3786 53.3615 24.0209C51.8616 22.6633 50.9728 20.569 51.0562 18.4892C51.0978 16.135 52.3755 13.8675 54.3059 12.6398V12.6398ZM57.1806 14.4885C56.3334 14.633 55.5418 15.124 55.0002 15.8028C53.6948 17.4205 53.6948 20.0058 55.0141 21.5945C55.764 22.5333 56.9723 23.0532 58.1388 22.9233C59.2359 22.8077 60.2497 22.0856 60.7913 21.089C61.7079 19.3992 61.5552 17.1027 60.3192 15.6295C59.5554 14.7196 58.3332 14.2719 57.1806 14.4885V14.4885Z" fill="#8191B2" fill-opacity="0.65"/>
<path d="M72.6545 13.376C74.321 11.7583 76.8902 11.2095 79.0288 12.0616C81.0564 12.856 82.348 14.8636 83.0007 16.9289C79.9871 18.2288 76.9874 19.5142 73.9738 20.8141C74.3904 21.6374 75.0292 22.3884 75.8903 22.6917C77.0985 23.1394 78.5428 22.9806 79.5566 22.1429C79.9593 21.8251 80.2787 21.4063 80.5842 21.0019C81.3481 21.5363 82.1119 22.0562 82.8757 22.5906C81.7925 24.2804 79.9732 25.4648 78.015 25.6525C75.8486 25.927 73.5433 25.0604 72.1406 23.2983C69.8353 20.5253 70.0575 15.8746 72.6545 13.376V13.376ZM74.1404 16.0479C73.6683 16.7556 73.4738 17.6222 73.4877 18.4744C75.5014 17.6078 77.5151 16.7412 79.5288 15.8602C79.1955 15.0514 78.39 14.5603 77.5707 14.4303C76.2513 14.1848 74.8765 14.9214 74.1404 16.0479V16.0479Z" fill="#8191B2" fill-opacity="0.65"/>
</svg>
