<svg width="144" height="56" viewBox="0 0 144 56" fill="none" xmlns="http://www.w3.org/2000/svg">
<path fill-rule="evenodd" clip-rule="evenodd" d="M12.6476 43.0753C10.2268 41.472 8.73626 38.7843 7.89074 35.707C7.05606 32.6692 7.07402 30.026 7.0813 29.6944L7.08151 29.6848L7.08152 29.6848C7.08334 29.6021 7.08658 29.4551 7.08658 29.2889V8.39386C10.7933 7.72452 16.5308 7 24 7C31.4692 7 37.2067 7.72452 40.9134 8.39386V29.2889C40.9134 29.4618 40.9169 29.6139 40.9187 29.6944C40.926 30.026 40.9439 32.6692 40.1093 35.707C39.2637 38.7843 37.7732 41.472 35.3524 43.0753C31.1342 45.8689 26.5896 47.7133 24 48.6343C21.4104 47.7133 16.8658 45.8689 12.6476 43.0753ZM0.086579 7.18993C0.086579 4.59287 1.76673 2.31493 4.3119 1.79843C8.30209 0.988689 15.014 0 24 0C32.986 0 39.6979 0.98869 43.6881 1.79843C46.2333 2.31493 47.9134 4.59287 47.9134 7.18993V29.2889C47.9134 29.3748 47.9151 29.4548 47.917 29.5406C47.9468 30.8962 47.9659 43.1175 39.2176 48.9114C33.9167 52.4221 28.3072 54.5671 25.6201 55.4822C24.5658 55.8412 23.4342 55.8412 22.3799 55.4822C19.6928 54.5671 14.0833 52.4221 8.78237 48.9114C0.0340528 43.1175 0.0532023 30.8962 0.082993 29.5406C0.0848791 29.4548 0.086579 29.3748 0.086579 29.2889V7.18993ZM32.3424 38.44V33.4L32.1493 33.24C31.4243 33.4277 31.009 33.4568 30.4675 33.4948C30.2397 33.5108 29.9896 33.5284 29.6847 33.56C28.6806 33.64 27.4577 33.68 26.016 33.68C24.8317 33.68 23.8534 33.5866 23.081 33.4C22.3344 33.2133 21.7423 32.8533 21.3046 32.32C20.8669 31.7866 20.558 31 20.3778 29.96C20.2233 28.8933 20.146 27.4933 20.146 25.76C20.146 24.1066 20.2233 22.7866 20.3778 21.8C20.558 20.8133 20.8669 20.0666 21.3046 19.56C21.7423 19.0533 22.3344 18.72 23.081 18.56C23.8534 18.3733 24.8317 18.28 26.016 18.28C27.4834 18.28 28.7192 18.3466 29.7233 18.48C30.7274 18.5866 31.77 18.7733 32.8513 19.04L32.9672 18.96V13.76C31.7314 13.4666 30.5214 13.2666 29.3371 13.16C28.1528 13.0266 26.7497 12.96 25.1278 12.96C23.0424 12.96 21.2788 13.1466 19.8371 13.52C18.4211 13.8666 17.2755 14.5066 16.4001 15.44C15.5505 16.3466 14.9326 17.64 14.5465 19.32C14.1603 21 13.9672 23.1466 13.9672 25.76C13.9672 28.48 14.1603 30.7066 14.5465 32.44C14.9326 34.1733 15.5505 35.52 16.4001 36.48C17.2755 37.4133 18.4211 38.0666 19.8371 38.44C21.2788 38.8133 23.0424 39 25.1278 39C26.7497 39 28.1528 38.9333 29.3371 38.8C29.7297 38.7558 30.0564 38.7306 30.3628 38.707C30.9808 38.6595 31.5162 38.6182 32.3424 38.44Z" fill="#4D6EFF"/>
<path d="M134.016 45.9777C132.91 45.9777 132.063 45.7047 131.475 45.1587C130.901 44.5987 130.614 43.8007 130.614 42.7647V31.9497H132.945V42.3237C132.945 42.8137 133.057 43.1847 133.281 43.4367C133.519 43.6887 133.862 43.8147 134.31 43.8147C134.45 43.8147 134.604 43.7867 134.772 43.7307C134.94 43.6747 135.129 43.5697 135.339 43.4157L136.2 45.2007C135.836 45.4527 135.472 45.6417 135.108 45.7677C134.744 45.9077 134.38 45.9777 134.016 45.9777ZM128.871 37.2417V35.2257H135.78V37.2417H128.871Z" fill="black"/>
<path d="M123.329 45.9776C122.251 45.9776 121.299 45.7466 120.473 45.2846C119.647 44.8086 118.996 44.1576 118.52 43.3316C118.058 42.5056 117.827 41.5536 117.827 40.4756C117.827 39.3976 118.058 38.4456 118.52 37.6196C118.996 36.7936 119.64 36.1496 120.452 35.6876C121.278 35.2116 122.223 34.9736 123.287 34.9736C124.323 34.9736 125.261 35.2256 126.101 35.7296C126.941 36.2196 127.564 36.9266 127.97 37.8506L125.786 38.6906C125.562 38.2286 125.219 37.8576 124.757 37.5776C124.295 37.2976 123.77 37.1576 123.182 37.1576C122.608 37.1576 122.097 37.3046 121.649 37.5986C121.201 37.8786 120.851 38.2706 120.599 38.7746C120.347 39.2646 120.221 39.8316 120.221 40.4756C120.221 41.1196 120.347 41.6936 120.599 42.1976C120.865 42.6876 121.222 43.0796 121.67 43.3736C122.132 43.6536 122.65 43.7936 123.224 43.7936C123.812 43.7936 124.337 43.6466 124.799 43.3526C125.261 43.0446 125.604 42.6316 125.828 42.1136L128.012 42.9536C127.606 43.9056 126.983 44.6476 126.143 45.1796C125.317 45.7116 124.379 45.9776 123.329 45.9776Z" fill="black"/>
<path d="M111.531 45.9776C110.509 45.9776 109.599 45.7466 108.801 45.2846C108.017 44.8086 107.394 44.1576 106.932 43.3316C106.484 42.5056 106.26 41.5536 106.26 40.4756C106.26 39.3976 106.491 38.4456 106.953 37.6196C107.415 36.7936 108.045 36.1496 108.843 35.6876C109.655 35.2116 110.579 34.9736 111.615 34.9736C112.553 34.9736 113.4 35.2186 114.156 35.7086C114.912 36.1846 115.507 36.8776 115.941 37.7876C116.389 38.6976 116.613 39.7826 116.613 41.0426H108.36L108.675 40.7486C108.675 41.3926 108.815 41.9526 109.095 42.4286C109.375 42.8906 109.746 43.2476 110.208 43.4996C110.67 43.7516 111.181 43.8776 111.741 43.8776C112.385 43.8776 112.917 43.7376 113.337 43.4576C113.757 43.1636 114.086 42.7856 114.324 42.3236L116.403 43.2056C116.109 43.7656 115.731 44.2556 115.269 44.6756C114.821 45.0956 114.282 45.4176 113.652 45.6416C113.036 45.8656 112.329 45.9776 111.531 45.9776ZM108.822 39.5306L108.486 39.2366H114.408L114.093 39.5306C114.093 38.9566 113.967 38.4876 113.715 38.1236C113.463 37.7456 113.141 37.4656 112.749 37.2836C112.371 37.0876 111.972 36.9896 111.552 36.9896C111.132 36.9896 110.712 37.0876 110.292 37.2836C109.872 37.4656 109.522 37.7456 109.242 38.1236C108.962 38.4876 108.822 38.9566 108.822 39.5306Z" fill="black"/>
<path d="M102.927 45.9777C101.821 45.9777 100.974 45.7047 100.386 45.1587C99.8116 44.5987 99.5246 43.8007 99.5246 42.7647V31.9497H101.856V42.3237C101.856 42.8137 101.968 43.1847 102.192 43.4367C102.43 43.6887 102.773 43.8147 103.221 43.8147C103.361 43.8147 103.515 43.7867 103.683 43.7307C103.851 43.6747 104.04 43.5697 104.25 43.4157L105.111 45.2007C104.747 45.4527 104.383 45.6417 104.019 45.7677C103.655 45.9077 103.291 45.9777 102.927 45.9777ZM97.7816 37.2417V35.2257H104.691V37.2417H97.7816Z" fill="black"/>
<path d="M91.3755 45.9776C90.3255 45.9776 89.3875 45.7466 88.5615 45.2846C87.7495 44.8086 87.1125 44.1576 86.6505 43.3316C86.1885 42.5056 85.9575 41.5536 85.9575 40.4756C85.9575 39.3976 86.1815 38.4456 86.6295 37.6196C87.0915 36.7936 87.7285 36.1496 88.5405 35.6876C89.3525 35.2116 90.2835 34.9736 91.3335 34.9736C92.3835 34.9736 93.3145 35.2116 94.1265 35.6876C94.9385 36.1496 95.5685 36.7936 96.0165 37.6196C96.4785 38.4456 96.7095 39.3976 96.7095 40.4756C96.7095 41.5536 96.4855 42.5056 96.0375 43.3316C95.5895 44.1576 94.9595 44.8086 94.1475 45.2846C93.3355 45.7466 92.4115 45.9776 91.3755 45.9776ZM91.3755 43.8146C91.9495 43.8146 92.4605 43.6746 92.9085 43.3946C93.3565 43.1006 93.7065 42.7086 93.9585 42.2186C94.2105 41.7146 94.3365 41.1336 94.3365 40.4756C94.3365 39.8176 94.2035 39.2436 93.9375 38.7536C93.6855 38.2496 93.3355 37.8576 92.8875 37.5776C92.4395 37.2836 91.9215 37.1366 91.3335 37.1366C90.7455 37.1366 90.2275 37.2766 89.7795 37.5566C89.3315 37.8366 88.9815 38.2286 88.7295 38.7326C88.4775 39.2366 88.3515 39.8176 88.3515 40.4756C88.3515 41.1336 88.4775 41.7146 88.7295 42.2186C88.9955 42.7086 89.3525 43.1006 89.8005 43.3946C90.2625 43.6746 90.7875 43.8146 91.3755 43.8146Z" fill="black"/>
<path d="M80.4706 40.1396C80.4706 39.0056 80.6876 38.0746 81.1216 37.3466C81.5556 36.6186 82.1156 36.0796 82.8016 35.7296C83.5016 35.3656 84.2296 35.1836 84.9856 35.1836V37.4306C84.3416 37.4306 83.7326 37.5216 83.1586 37.7036C82.5986 37.8716 82.1436 38.1516 81.7936 38.5436C81.4436 38.9356 81.2686 39.4536 81.2686 40.0976L80.4706 40.1396ZM78.9166 45.7256V35.2256H81.2686V45.7256H78.9166Z" fill="black"/>
<path d="M66.9503 45.7254V31.0254H72.1373C73.1453 31.0254 74.0343 31.2284 74.8043 31.6344C75.5743 32.0404 76.1763 32.6074 76.6103 33.3354C77.0443 34.0494 77.2613 34.8824 77.2613 35.8344C77.2613 36.7584 77.0583 37.5844 76.6523 38.3124C76.2463 39.0404 75.6793 39.6144 74.9513 40.0344C74.2373 40.4404 73.4043 40.6434 72.4523 40.6434H69.3863V45.7254H66.9503ZM69.3863 38.3964H72.4103C73.1103 38.3964 73.6843 38.1584 74.1323 37.6824C74.5803 37.2064 74.8043 36.5904 74.8043 35.8344C74.8043 35.0644 74.5523 34.4414 74.0483 33.9654C73.5443 33.4894 72.8933 33.2514 72.0953 33.2514H69.3863V38.3964Z" fill="black"/>
<path d="M141.122 24.9777C140.016 24.9777 139.169 24.7047 138.581 24.1587C138.007 23.5987 137.72 22.8007 137.72 21.7647V10.9497H140.051V21.3237C140.051 21.8137 140.163 22.1847 140.387 22.4367C140.625 22.6887 140.968 22.8147 141.416 22.8147C141.556 22.8147 141.71 22.7867 141.878 22.7307C142.046 22.6747 142.235 22.5697 142.445 22.4157L143.306 24.2007C142.942 24.4527 142.578 24.6417 142.214 24.7677C141.85 24.9077 141.486 24.9777 141.122 24.9777ZM135.977 16.2417V14.2257H142.886V16.2417H135.977Z" fill="black"/>
<path d="M130.435 24.9776C129.357 24.9776 128.405 24.7466 127.579 24.2846C126.753 23.8086 126.102 23.1576 125.626 22.3316C125.164 21.5056 124.933 20.5536 124.933 19.4756C124.933 18.3976 125.164 17.4456 125.626 16.6196C126.102 15.7936 126.746 15.1496 127.558 14.6876C128.384 14.2116 129.329 13.9736 130.393 13.9736C131.429 13.9736 132.367 14.2256 133.207 14.7296C134.047 15.2196 134.67 15.9266 135.076 16.8506L132.892 17.6906C132.668 17.2286 132.325 16.8576 131.863 16.5776C131.401 16.2976 130.876 16.1576 130.288 16.1576C129.714 16.1576 129.203 16.3046 128.755 16.5986C128.307 16.8786 127.957 17.2706 127.705 17.7746C127.453 18.2646 127.327 18.8316 127.327 19.4756C127.327 20.1196 127.453 20.6936 127.705 21.1976C127.971 21.6876 128.328 22.0796 128.776 22.3736C129.238 22.6536 129.756 22.7936 130.33 22.7936C130.918 22.7936 131.443 22.6466 131.905 22.3526C132.367 22.0446 132.71 21.6316 132.934 21.1136L135.118 21.9536C134.712 22.9056 134.089 23.6476 133.249 24.1796C132.423 24.7116 131.485 24.9776 130.435 24.9776Z" fill="black"/>
<path d="M120.913 24.7256L120.808 22.7516V19.3286C120.808 18.6146 120.731 18.0196 120.577 17.5436C120.437 17.0536 120.199 16.6826 119.863 16.4306C119.541 16.1646 119.107 16.0316 118.561 16.0316C118.057 16.0316 117.616 16.1366 117.238 16.3466C116.86 16.5566 116.538 16.8856 116.272 17.3336L114.214 16.5776C114.438 16.1156 114.732 15.6886 115.096 15.2966C115.474 14.8906 115.943 14.5686 116.503 14.3306C117.077 14.0926 117.763 13.9736 118.561 13.9736C119.583 13.9736 120.437 14.1766 121.123 14.5826C121.809 14.9746 122.313 15.5416 122.635 16.2836C122.971 17.0256 123.139 17.9216 123.139 18.9716L123.076 24.7256H120.913ZM117.889 24.9776C116.629 24.9776 115.649 24.6976 114.949 24.1376C114.263 23.5776 113.92 22.7866 113.92 21.7646C113.92 20.6726 114.284 19.8396 115.012 19.2656C115.754 18.6916 116.783 18.4046 118.099 18.4046H120.913V20.2106H118.855C117.917 20.2106 117.259 20.3436 116.881 20.6096C116.503 20.8616 116.314 21.2256 116.314 21.7016C116.314 22.1076 116.475 22.4296 116.797 22.6676C117.133 22.8916 117.595 23.0036 118.183 23.0036C118.715 23.0036 119.177 22.8846 119.569 22.6466C119.961 22.4086 120.262 22.0936 120.472 21.7016C120.696 21.3096 120.808 20.8686 120.808 20.3786H121.501C121.501 21.8066 121.214 22.9336 120.64 23.7596C120.066 24.5716 119.149 24.9776 117.889 24.9776Z" fill="black"/>
<path d="M108.433 19.1396C108.433 18.0056 108.65 17.0746 109.084 16.3466C109.518 15.6186 110.078 15.0796 110.764 14.7296C111.464 14.3656 112.192 14.1836 112.948 14.1836V16.4306C112.304 16.4306 111.695 16.5216 111.121 16.7036C110.561 16.8716 110.106 17.1516 109.756 17.5436C109.406 17.9356 109.231 18.4536 109.231 19.0976L108.433 19.1396ZM106.879 24.7256V14.2256H109.231V24.7256H106.879Z" fill="black"/>
<path d="M102.814 24.9777C101.708 24.9777 100.861 24.7047 100.273 24.1587C99.6988 23.5987 99.4118 22.8007 99.4118 21.7647V10.9497H101.743V21.3237C101.743 21.8137 101.855 22.1847 102.079 22.4367C102.317 22.6887 102.66 22.8147 103.108 22.8147C103.248 22.8147 103.402 22.7867 103.57 22.7307C103.738 22.6747 103.927 22.5697 104.137 22.4157L104.998 24.2007C104.634 24.4527 104.27 24.6417 103.906 24.7677C103.542 24.9077 103.178 24.9777 102.814 24.9777ZM97.6688 16.2417V14.2257H104.578V16.2417H97.6688Z" fill="black"/>
<path d="M86.7813 24.7256V14.2256H88.9863L89.1333 16.1576V24.7256H86.7813ZM93.9003 24.7256V19.3496H96.2523V24.7256H93.9003ZM93.9003 19.3496C93.9003 18.5096 93.8023 17.8656 93.6063 17.4176C93.4243 16.9556 93.1583 16.6336 92.8083 16.4516C92.4723 16.2696 92.0733 16.1786 91.6113 16.1786C90.8273 16.1646 90.2183 16.4236 89.7843 16.9556C89.3503 17.4876 89.1333 18.2506 89.1333 19.2446H88.2513C88.2513 18.1386 88.4123 17.1936 88.7343 16.4096C89.0563 15.6116 89.5183 15.0096 90.1203 14.6036C90.7223 14.1836 91.4363 13.9736 92.2623 13.9736C93.1023 13.9736 93.8163 14.1416 94.4043 14.4776C95.0063 14.8136 95.4613 15.3386 95.7693 16.0526C96.0913 16.7526 96.2523 17.6696 96.2523 18.8036V19.3496H93.9003Z" fill="black"/>
<path d="M79.4092 24.9776C78.3592 24.9776 77.4212 24.7466 76.5952 24.2846C75.7832 23.8086 75.1462 23.1576 74.6842 22.3316C74.2222 21.5056 73.9912 20.5536 73.9912 19.4756C73.9912 18.3976 74.2152 17.4456 74.6632 16.6196C75.1252 15.7936 75.7622 15.1496 76.5742 14.6876C77.3862 14.2116 78.3172 13.9736 79.3672 13.9736C80.4172 13.9736 81.3482 14.2116 82.1602 14.6876C82.9722 15.1496 83.6022 15.7936 84.0502 16.6196C84.5122 17.4456 84.7432 18.3976 84.7432 19.4756C84.7432 20.5536 84.5192 21.5056 84.0712 22.3316C83.6232 23.1576 82.9932 23.8086 82.1812 24.2846C81.3692 24.7466 80.4452 24.9776 79.4092 24.9776ZM79.4092 22.8146C79.9832 22.8146 80.4942 22.6746 80.9422 22.3946C81.3902 22.1006 81.7402 21.7086 81.9922 21.2186C82.2442 20.7146 82.3702 20.1336 82.3702 19.4756C82.3702 18.8176 82.2372 18.2436 81.9712 17.7536C81.7192 17.2496 81.3692 16.8576 80.9212 16.5776C80.4732 16.2836 79.9552 16.1366 79.3672 16.1366C78.7792 16.1366 78.2612 16.2766 77.8132 16.5566C77.3652 16.8366 77.0152 17.2286 76.7632 17.7326C76.5112 18.2366 76.3852 18.8176 76.3852 19.4756C76.3852 20.1336 76.5112 20.7146 76.7632 21.2186C77.0292 21.7086 77.3862 22.1006 77.8342 22.3946C78.2962 22.6746 78.8212 22.8146 79.4092 22.8146Z" fill="black"/>
<path d="M66.2074 24.9774C64.7934 24.9774 63.5334 24.6554 62.4274 24.0114C61.3354 23.3534 60.4744 22.4574 59.8444 21.3234C59.2284 20.1754 58.9204 18.8594 58.9204 17.3754C58.9204 15.8914 59.2284 14.5824 59.8444 13.4484C60.4744 12.3004 61.3354 11.4044 62.4274 10.7604C63.5194 10.1024 64.7724 9.77344 66.1864 9.77344C67.1384 9.77344 68.0344 9.94844 68.8744 10.2984C69.7144 10.6344 70.4564 11.1034 71.1004 11.7054C71.7584 12.3074 72.2624 13.0074 72.6124 13.8054L70.3864 14.7084C70.1344 14.1764 69.7914 13.7074 69.3574 13.3014C68.9374 12.8814 68.4544 12.5594 67.9084 12.3354C67.3624 12.1114 66.7884 11.9994 66.1864 11.9994C65.2624 11.9994 64.4364 12.2304 63.7084 12.6924C62.9944 13.1544 62.4274 13.7914 62.0074 14.6034C61.6014 15.4014 61.3984 16.3254 61.3984 17.3754C61.3984 18.4254 61.6014 19.3564 62.0074 20.1684C62.4274 20.9804 63.0014 21.6174 63.7294 22.0794C64.4714 22.5414 65.3114 22.7724 66.2494 22.7724C66.8654 22.7724 67.4394 22.6534 67.9714 22.4154C68.5174 22.1634 69.0004 21.8204 69.4204 21.3864C69.8544 20.9524 70.1974 20.4484 70.4494 19.8744L72.6754 20.7774C72.3254 21.6034 71.8284 22.3384 71.1844 22.9824C70.5404 23.6124 69.7914 24.1024 68.9374 24.4524C68.0834 24.8024 67.1734 24.9774 66.2074 24.9774Z" fill="black"/>
</svg>
