<svg width="19" height="18" viewBox="0 0 19 18" fill="none" xmlns="http://www.w3.org/2000/svg">
<path d="M11.75 14.3457C12.3747 14.5275 13.0353 14.625 13.7187 14.625C14.8278 14.625 15.8769 14.3682 16.8098 13.9109C16.8116 13.8679 16.8125 13.8247 16.8125 13.7812C16.8125 12.0726 15.4273 10.6875 13.7187 10.6875C12.6552 10.6875 11.717 11.2241 11.1602 12.0414M11.75 14.3457V14.3438C11.75 13.5091 11.5361 12.7244 11.1602 12.0414M11.75 14.3457C11.75 14.3724 11.7498 14.3991 11.7493 14.4257C10.353 15.2664 8.71735 15.75 6.96875 15.75C5.22014 15.75 3.58448 15.2664 2.18819 14.4257C2.18773 14.3985 2.1875 14.3711 2.1875 14.3438C2.1875 11.7031 4.32814 9.5625 6.96875 9.5625C8.77469 9.5625 10.3468 10.5637 11.1602 12.0414M9.5 4.78125C9.5 6.17922 8.36672 7.3125 6.96875 7.3125C5.57078 7.3125 4.4375 6.17922 4.4375 4.78125C4.4375 3.38328 5.57078 2.25 6.96875 2.25C8.36672 2.25 9.5 3.38328 9.5 4.78125ZM15.6875 6.46875C15.6875 7.55606 14.8061 8.4375 13.7187 8.4375C12.6314 8.4375 11.75 7.55606 11.75 6.46875C11.75 5.38144 12.6314 4.5 13.7187 4.5C14.8061 4.5 15.6875 5.38144 15.6875 6.46875Z" stroke="#9AA6BE" stroke-width="1.5" stroke-linecap="round" stroke-linejoin="round"/>
</svg>
