<svg width="53" height="53" viewBox="0 0 53 53" fill="none" xmlns="http://www.w3.org/2000/svg">
<g filter="url(#filter0_f_161_6544)">
<circle cx="26.4218" cy="26.5" r="10" fill="#FFDA60"/>
</g>
<path d="M24.8436 21.7498L27.0936 23.9998L30.8436 18.7498M27.8436 11.7141C25.6931 13.7507 22.7893 14.9999 19.5936 14.9999C19.5429 14.9999 19.4921 14.9995 19.4415 14.9989C19.0535 16.179 18.8436 17.44 18.8436 18.7499C18.8436 24.3414 22.6679 29.0397 27.8436 30.3719C33.0193 29.0397 36.8436 24.3414 36.8436 18.7499C36.8436 17.44 36.6337 16.179 36.2457 14.9989C36.1951 14.9995 36.1444 14.9999 36.0936 14.9999C32.898 14.9999 29.9941 13.7507 27.8436 11.7141Z" stroke="#0F172A" stroke-width="1.5" stroke-linecap="round" stroke-linejoin="round"/>
<defs>
<filter id="filter0_f_161_6544" x="0.421753" y="0.5" width="52" height="52" filterUnits="userSpaceOnUse" color-interpolation-filters="sRGB">
<feFlood flood-opacity="0" result="BackgroundImageFix"/>
<feBlend mode="normal" in="SourceGraphic" in2="BackgroundImageFix" result="shape"/>
<feGaussianBlur stdDeviation="8" result="effect1_foregroundBlur_161_6544"/>
</filter>
</defs>
</svg>
